<svg width="201" height="36" viewBox="0 0 201 36" fill="none" xmlns="http://www.w3.org/2000/svg">
<path d="M38.928 0.672006V1.632C37.84 1.664 37.024 1.792 36.48 2.01601C35.936 2.208 35.568 2.592 35.376 3.168C35.216 3.712 35.136 4.576 35.136 5.76V29.568C35.136 30.72 35.216 31.584 35.376 32.16C35.568 32.736 35.936 33.12 36.48 33.312C37.024 33.504 37.84 33.632 38.928 33.696V34.656C38.128 34.592 37.136 34.56 35.952 34.56C34.768 34.528 33.568 34.512 32.352 34.512C31.008 34.512 29.744 34.528 28.56 34.56C27.376 34.56 26.432 34.592 25.728 34.656V33.696C26.816 33.632 27.632 33.504 28.176 33.312C28.752 33.12 29.136 32.736 29.328 32.16C29.52 31.584 29.616 30.72 29.616 29.568V3.312L29.856 3.408L18.048 34.848H17.28L4.89602 3.744V28.32C4.89602 29.664 4.99202 30.72 5.18402 31.488C5.37602 32.224 5.79202 32.752 6.43202 33.072C7.07202 33.392 8.04802 33.6 9.36002 33.696V34.656C8.75202 34.592 7.96802 34.56 7.00802 34.56C6.08002 34.528 5.20002 34.512 4.36802 34.512C3.56802 34.512 2.76802 34.528 1.96802 34.56C1.16802 34.56 0.512017 34.592 1.72257e-05 34.656V33.696C1.05602 33.6 1.85602 33.408 2.40002 33.12C2.94402 32.8 3.31202 32.272 3.50402 31.536C3.69602 30.8 3.79202 29.792 3.79202 28.512V5.76C3.79202 4.576 3.69602 3.712 3.50402 3.168C3.31202 2.592 2.94402 2.208 2.40002 2.01601C1.85602 1.792 1.05602 1.664 1.72257e-05 1.632V0.672006C0.512017 0.704005 1.16802 0.736005 1.96802 0.768004C2.76802 0.800004 3.56802 0.816004 4.36802 0.816004C5.29602 0.816004 6.22402 0.800004 7.15202 0.768004C8.11202 0.736005 8.92802 0.704005 9.60002 0.672006L20.208 27.936L19.296 28.56L29.712 0.816004C30.128 0.816004 30.56 0.816004 31.008 0.816004C31.456 0.816004 31.904 0.816004 32.352 0.816004C33.568 0.816004 34.768 0.800004 35.952 0.768004C37.136 0.736005 38.128 0.704005 38.928 0.672006Z" fill="#8B4513"/>
<path d="M59.0231 2.86102e-06C62.1591 2.86102e-06 64.9111 0.688004 67.2791 2.064C69.6791 3.44 71.5351 5.424 72.8471 8.01601C74.1591 10.576 74.8151 13.696 74.8151 17.376C74.8151 20.96 74.1431 24.096 72.7991 26.784C71.4551 29.472 69.5831 31.568 67.1831 33.072C64.7831 34.576 62.0471 35.328 58.9751 35.328C55.8071 35.328 53.0391 34.64 50.6711 33.264C48.3031 31.888 46.4631 29.904 45.1511 27.312C43.8391 24.72 43.1831 21.6 43.1831 17.952C43.1831 14.368 43.8551 11.232 45.1991 8.544C46.5751 5.856 48.4471 3.76 50.8151 2.25601C53.1831 0.752004 55.9191 2.86102e-06 59.0231 2.86102e-06ZM58.8311 0.864003C56.8471 0.864003 55.1191 1.584 53.6471 3.024C52.1751 4.464 51.0391 6.448 50.2391 8.976C49.4391 11.504 49.0391 14.432 49.0391 17.76C49.0391 21.152 49.4871 24.112 50.3831 26.64C51.2791 29.136 52.4951 31.072 54.0311 32.448C55.5671 33.792 57.2791 34.464 59.1671 34.464C61.1511 34.464 62.8631 33.744 64.3031 32.304C65.7751 30.864 66.9111 28.88 67.7111 26.352C68.5431 23.792 68.9591 20.864 68.9591 17.568C68.9591 14.144 68.4951 11.184 67.5671 8.68801C66.6711 6.19201 65.4551 4.27201 63.9191 2.92801C62.4151 1.552 60.7191 0.864003 58.8311 0.864003ZM92.3351 0.672006C98.2551 0.672006 102.655 2.11201 105.535 4.992C108.415 7.84 109.855 11.936 109.855 17.28C109.855 20.768 109.151 23.824 107.743 26.448C106.335 29.04 104.287 31.056 101.599 32.496C98.9431 33.936 95.7111 34.656 91.9031 34.656C91.4231 34.656 90.7671 34.64 89.9351 34.608C89.1351 34.576 88.3031 34.56 87.4391 34.56C86.5751 34.528 85.7911 34.512 85.0871 34.512C83.8711 34.512 82.6711 34.528 81.4871 34.56C80.3351 34.56 79.3911 34.592 78.6551 34.656V33.696C79.7431 33.632 80.5591 33.504 81.1031 33.312C81.6471 33.12 81.9991 32.736 82.1591 32.16C82.3511 31.584 82.4471 30.72 82.4471 29.568V5.76C82.4471 4.576 82.3511 3.712 82.1591 3.168C81.9991 2.592 81.6311 2.208 81.0551 2.01601C80.5111 1.792 79.7111 1.664 78.6551 1.632V0.672006C79.3911 0.704005 80.3351 0.752005 81.4871 0.816004C82.6711 0.848003 83.8391 0.848003 84.9911 0.816004C86.1431 0.784004 87.4231 0.752005 88.8311 0.720005C90.2711 0.688005 91.4391 0.672006 92.3351 0.672006ZM91.5191 1.536C90.0471 1.536 89.0871 1.808 88.6391 2.352C88.1911 2.896 87.9671 4 87.9671 5.664V29.664C87.9671 31.328 88.1911 32.432 88.6391 32.976C89.1191 33.52 90.0951 33.792 91.5671 33.792C94.7991 33.792 97.3111 33.168 99.1031 31.92C100.895 30.64 102.159 28.784 102.895 26.352C103.631 23.92 103.999 20.96 103.999 17.472C103.999 13.888 103.599 10.928 102.799 8.592C101.999 6.224 100.687 4.464 98.8631 3.312C97.0711 2.128 94.6231 1.536 91.5191 1.536ZM138.339 0.672006C138.211 1.88801 138.115 3.07201 138.051 4.22401C138.019 5.344 138.003 6.208 138.003 6.816C138.003 7.424 138.019 8 138.051 8.544C138.083 9.08801 138.115 9.53601 138.147 9.888H137.043C136.819 7.84 136.467 6.224 135.987 5.04C135.539 3.856 134.851 3.024 133.923 2.544C133.027 2.032 131.763 1.776 130.131 1.776H126.819C125.795 1.776 125.011 1.872 124.467 2.064C123.955 2.224 123.603 2.576 123.411 3.12001C123.219 3.632 123.123 4.448 123.123 5.56801V29.76C123.123 30.848 123.219 31.664 123.411 32.208C123.603 32.752 123.955 33.12 124.467 33.312C125.011 33.472 125.795 33.552 126.819 33.552H129.939C131.763 33.552 133.203 33.264 134.259 32.688C135.347 32.112 136.163 31.168 136.707 29.856C137.283 28.544 137.715 26.752 138.003 24.48H139.107C139.011 25.408 138.963 26.624 138.963 28.128C138.963 28.768 138.979 29.696 139.011 30.912C139.075 32.128 139.171 33.376 139.299 34.656C137.667 34.592 135.827 34.56 133.779 34.56C131.731 34.528 129.907 34.512 128.307 34.512C127.571 34.512 126.627 34.512 125.475 34.512C124.323 34.512 123.075 34.528 121.731 34.56C120.419 34.56 119.075 34.576 117.699 34.608C116.355 34.608 115.059 34.624 113.811 34.656V33.696C114.899 33.632 115.715 33.504 116.259 33.312C116.803 33.12 117.155 32.736 117.315 32.16C117.507 31.584 117.603 30.72 117.603 29.568V5.76C117.603 4.576 117.507 3.712 117.315 3.168C117.155 2.592 116.787 2.208 116.211 2.01601C115.667 1.792 114.867 1.664 113.811 1.632V0.672006C115.059 0.704005 116.355 0.736005 117.699 0.768004C119.075 0.768004 120.419 0.784004 121.731 0.816004C123.075 0.816004 124.323 0.816004 125.475 0.816004C126.627 0.816004 127.571 0.816004 128.307 0.816004C129.779 0.816004 131.443 0.816004 133.299 0.816004C135.187 0.784004 136.867 0.736005 138.339 0.672006ZM130.371 17.088C130.371 17.088 130.371 17.248 130.371 17.568C130.371 17.888 130.371 18.048 130.371 18.048H121.683C121.683 18.048 121.683 17.888 121.683 17.568C121.683 17.248 121.683 17.088 121.683 17.088H130.371ZM131.763 10.752C131.635 12.576 131.571 13.968 131.571 14.928C131.603 15.888 131.619 16.768 131.619 17.568C131.619 18.368 131.635 19.248 131.667 20.208C131.699 21.168 131.779 22.56 131.907 24.384H130.803C130.643 23.328 130.435 22.32 130.179 21.36C129.923 20.368 129.459 19.568 128.787 18.96C128.147 18.352 127.139 18.048 125.763 18.048V17.088C126.787 17.088 127.587 16.88 128.163 16.464C128.771 16.048 129.235 15.504 129.555 14.832C129.875 14.16 130.099 13.472 130.227 12.768C130.387 12.032 130.531 11.36 130.659 10.752H131.763ZM172.672 0.672006V1.632C172.032 1.792 171.344 2.224 170.608 2.92801C169.904 3.632 169.248 4.768 168.64 6.336L157.744 34.848C157.616 34.848 157.488 34.848 157.36 34.848C157.232 34.848 157.088 34.848 156.928 34.848C156.8 34.848 156.672 34.848 156.544 34.848C156.416 34.848 156.288 34.848 156.16 34.848L144.256 4.70401C143.776 3.52001 143.248 2.72001 142.672 2.304C142.096 1.888 141.552 1.664 141.04 1.632V0.672006C141.776 0.704005 142.672 0.736005 143.728 0.768004C144.816 0.800004 145.872 0.816004 146.896 0.816004C148.208 0.816004 149.44 0.800004 150.592 0.768004C151.776 0.736005 152.72 0.704005 153.424 0.672006V1.632C152.368 1.664 151.552 1.792 150.976 2.01601C150.4 2.24 150.08 2.64 150.016 3.216C149.984 3.76 150.176 4.576 150.592 5.664L159.472 28.848L158.608 29.808L166.384 9.36001C167.12 7.40801 167.488 5.88801 167.488 4.8C167.488 3.68001 167.136 2.88 166.432 2.4C165.728 1.92 164.704 1.664 163.36 1.632V0.672006C164.352 0.704005 165.328 0.736005 166.288 0.768004C167.248 0.800004 168.16 0.816004 169.024 0.816004C169.824 0.816004 170.512 0.800004 171.088 0.768004C171.664 0.736005 172.192 0.704005 172.672 0.672006ZM185.257 0.480005L196.969 30.624C197.417 31.808 197.929 32.608 198.505 33.024C199.113 33.44 199.673 33.664 200.185 33.696V34.656C199.417 34.592 198.505 34.56 197.449 34.56C196.425 34.528 195.385 34.512 194.329 34.512C192.985 34.512 191.737 34.528 190.585 34.56C189.433 34.56 188.505 34.592 187.801 34.656V33.696C189.433 33.632 190.457 33.36 190.873 32.88C191.321 32.368 191.225 31.296 190.585 29.664L181.945 6.336L182.713 5.472L174.745 26.304C174.169 27.744 173.817 28.944 173.689 29.904C173.593 30.864 173.673 31.616 173.929 32.16C174.217 32.704 174.697 33.088 175.369 33.312C176.041 33.536 176.873 33.664 177.865 33.696V34.656C176.905 34.592 175.929 34.56 174.937 34.56C173.977 34.528 173.065 34.512 172.201 34.512C171.433 34.512 170.745 34.528 170.137 34.56C169.561 34.56 169.033 34.592 168.553 34.656V33.696C169.225 33.536 169.897 33.136 170.569 32.496C171.241 31.856 171.881 30.768 172.489 29.232L183.625 0.480005C183.881 0.480005 184.153 0.480005 184.441 0.480005C184.729 0.480005 185.001 0.480005 185.257 0.480005ZM190.297 20.832V21.792H175.993L176.473 20.832H190.297Z" fill="white"/>
</svg>
