<svg width="214" height="33" viewBox="0 0 214 33" fill="none" xmlns="http://www.w3.org/2000/svg">
<rect width="214" height="33" fill="#FAFAFA"/>
<path d="M22 22L18.5355 18.5355M18.5355 18.5355C19.4404 17.6307 20 16.3807 20 15C20 12.2386 17.7614 10 15 10C12.2386 10 10 12.2386 10 15C10 17.7614 12.2386 20 15 20C16.3807 20 17.6307 19.4404 18.5355 18.5355Z" stroke="#B6B6B6" stroke-width="1.5" stroke-linecap="round" stroke-linejoin="round"/>
<path d="M38.412 13.537C38.37 13.607 38.3233 13.6607 38.272 13.698C38.2253 13.7307 38.167 13.747 38.097 13.747C38.0177 13.747 37.9243 13.7073 37.817 13.628C37.7097 13.5487 37.5743 13.4623 37.411 13.369C37.2523 13.271 37.0587 13.1823 36.83 13.103C36.606 13.0237 36.333 12.984 36.011 12.984C35.7077 12.984 35.4393 13.026 35.206 13.11C34.9773 13.1893 34.7837 13.299 34.625 13.439C34.471 13.579 34.3543 13.7447 34.275 13.936C34.1957 14.1227 34.156 14.3257 34.156 14.545C34.156 14.825 34.2237 15.0583 34.359 15.245C34.499 15.427 34.681 15.5833 34.905 15.714C35.1337 15.8447 35.3903 15.959 35.675 16.057C35.9643 16.1503 36.2583 16.2483 36.557 16.351C36.8603 16.4537 37.1543 16.5703 37.439 16.701C37.7283 16.827 37.985 16.988 38.209 17.184C38.4377 17.38 38.6197 17.6203 38.755 17.905C38.895 18.1897 38.965 18.5397 38.965 18.955C38.965 19.3937 38.8903 19.8067 38.741 20.194C38.5917 20.5767 38.3723 20.9103 38.083 21.195C37.7983 21.4797 37.446 21.7037 37.026 21.867C36.6107 22.0303 36.137 22.112 35.605 22.112C34.9517 22.112 34.359 21.9953 33.827 21.762C33.295 21.524 32.84 21.2043 32.462 20.803L32.854 20.159C32.8913 20.1077 32.9357 20.0657 32.987 20.033C33.043 19.9957 33.1037 19.977 33.169 19.977C33.2297 19.977 33.2973 20.0027 33.372 20.054C33.4513 20.1007 33.54 20.1613 33.638 20.236C33.736 20.3107 33.848 20.3923 33.974 20.481C34.1 20.5697 34.2423 20.6513 34.401 20.726C34.5643 20.8007 34.7487 20.8637 34.954 20.915C35.1593 20.9617 35.3903 20.985 35.647 20.985C35.969 20.985 36.256 20.9407 36.508 20.852C36.76 20.7633 36.9723 20.6397 37.145 20.481C37.3223 20.3177 37.4577 20.124 37.551 19.9C37.6443 19.676 37.691 19.4263 37.691 19.151C37.691 18.8477 37.621 18.6003 37.481 18.409C37.3457 18.213 37.166 18.0497 36.942 17.919C36.718 17.7883 36.4613 17.6787 36.172 17.59C35.8827 17.4967 35.5887 17.4033 35.29 17.31C34.9913 17.212 34.6973 17.1 34.408 16.974C34.1187 16.848 33.862 16.6847 33.638 16.484C33.414 16.2833 33.232 16.0337 33.092 15.735C32.9567 15.4317 32.889 15.0583 32.889 14.615C32.889 14.2603 32.9567 13.9173 33.092 13.586C33.232 13.2547 33.4327 12.9607 33.694 12.704C33.96 12.4473 34.2843 12.242 34.667 12.088C35.0543 11.934 35.4977 11.857 35.997 11.857C36.557 11.857 37.0657 11.9457 37.523 12.123C37.985 12.3003 38.391 12.557 38.741 12.893L38.412 13.537ZM45.2935 17.681C45.2935 17.3917 45.2515 17.128 45.1675 16.89C45.0882 16.6473 44.9692 16.4397 44.8105 16.267C44.6565 16.0897 44.4675 15.9543 44.2435 15.861C44.0195 15.763 43.7652 15.714 43.4805 15.714C42.8832 15.714 42.4095 15.889 42.0595 16.239C41.7142 16.5843 41.4995 17.065 41.4155 17.681H45.2935ZM46.3015 21.006C46.1475 21.1927 45.9632 21.356 45.7485 21.496C45.5339 21.6313 45.3029 21.7433 45.0555 21.832C44.8129 21.9207 44.5609 21.986 44.2995 22.028C44.0382 22.0747 43.7792 22.098 43.5225 22.098C43.0325 22.098 42.5799 22.0163 42.1645 21.853C41.7539 21.685 41.3969 21.4423 41.0935 21.125C40.7949 20.803 40.5615 20.4063 40.3935 19.935C40.2255 19.4637 40.1415 18.9223 40.1415 18.311C40.1415 17.8163 40.2162 17.3543 40.3655 16.925C40.5195 16.4957 40.7389 16.1247 41.0235 15.812C41.3082 15.4947 41.6559 15.2473 42.0665 15.07C42.4772 14.888 42.9392 14.797 43.4525 14.797C43.8772 14.797 44.2692 14.8693 44.6285 15.014C44.9925 15.154 45.3052 15.3593 45.5665 15.63C45.8325 15.896 46.0402 16.2273 46.1895 16.624C46.3389 17.016 46.4135 17.464 46.4135 17.968C46.4135 18.164 46.3925 18.2947 46.3505 18.36C46.3085 18.4253 46.2292 18.458 46.1125 18.458H41.3735C41.3875 18.906 41.4482 19.2957 41.5555 19.627C41.6675 19.9583 41.8215 20.236 42.0175 20.46C42.2135 20.6793 42.4469 20.845 42.7175 20.957C42.9882 21.0643 43.2915 21.118 43.6275 21.118C43.9402 21.118 44.2085 21.083 44.4325 21.013C44.6612 20.9383 44.8572 20.859 45.0205 20.775C45.1839 20.691 45.3192 20.614 45.4265 20.544C45.5385 20.4693 45.6342 20.432 45.7135 20.432C45.8162 20.432 45.8955 20.4717 45.9515 20.551L46.3015 21.006ZM51.787 18.808C51.213 18.8267 50.723 18.8733 50.317 18.948C49.9157 19.018 49.5867 19.1113 49.33 19.228C49.078 19.3447 48.8937 19.4823 48.777 19.641C48.665 19.7997 48.609 19.977 48.609 20.173C48.609 20.3597 48.6394 20.5207 48.7 20.656C48.7607 20.7913 48.8424 20.9033 48.945 20.992C49.0524 21.076 49.176 21.139 49.316 21.181C49.4607 21.2183 49.6147 21.237 49.778 21.237C49.9974 21.237 50.198 21.216 50.38 21.174C50.562 21.1273 50.7324 21.062 50.891 20.978C51.0544 20.894 51.2084 20.7937 51.353 20.677C51.5024 20.5603 51.647 20.4273 51.787 20.278V18.808ZM47.762 15.91C48.154 15.532 48.5764 15.2497 49.029 15.063C49.4817 14.8763 49.9834 14.783 50.534 14.783C50.9307 14.783 51.283 14.8483 51.591 14.979C51.899 15.1097 52.158 15.2917 52.368 15.525C52.578 15.7583 52.7367 16.0407 52.844 16.372C52.9514 16.7033 53.005 17.0673 53.005 17.464V22H52.452C52.3307 22 52.2374 21.9813 52.172 21.944C52.1067 21.902 52.0554 21.8227 52.018 21.706L51.878 21.034C51.6914 21.2067 51.5094 21.3607 51.332 21.496C51.1547 21.6267 50.968 21.7387 50.772 21.832C50.576 21.9207 50.366 21.9883 50.142 22.035C49.9227 22.0863 49.6777 22.112 49.407 22.112C49.1317 22.112 48.8727 22.0747 48.63 22C48.3874 21.9207 48.175 21.804 47.993 21.65C47.8157 21.496 47.6734 21.3023 47.566 21.069C47.4634 20.831 47.412 20.551 47.412 20.229C47.412 19.949 47.489 19.6807 47.643 19.424C47.797 19.1627 48.0467 18.9317 48.392 18.731C48.7374 18.5303 49.1877 18.367 49.743 18.241C50.2984 18.1103 50.9797 18.0357 51.787 18.017V17.464C51.787 16.9133 51.668 16.498 51.43 16.218C51.192 15.9333 50.8444 15.791 50.387 15.791C50.079 15.791 49.82 15.8307 49.61 15.91C49.4047 15.9847 49.225 16.071 49.071 16.169C48.9217 16.2623 48.791 16.3487 48.679 16.428C48.5717 16.5027 48.4644 16.54 48.357 16.54C48.273 16.54 48.2007 16.519 48.14 16.477C48.0794 16.4303 48.028 16.3743 47.986 16.309L47.762 15.91ZM56.086 16.33C56.31 15.8447 56.5853 15.4667 56.912 15.196C57.2387 14.9207 57.6377 14.783 58.109 14.783C58.2583 14.783 58.4007 14.7993 58.536 14.832C58.676 14.8647 58.7997 14.916 58.907 14.986L58.816 15.917C58.788 16.0337 58.718 16.092 58.606 16.092C58.5407 16.092 58.445 16.078 58.319 16.05C58.193 16.022 58.0507 16.008 57.892 16.008C57.668 16.008 57.4673 16.0407 57.29 16.106C57.1173 16.1713 56.961 16.2693 56.821 16.4C56.6857 16.526 56.562 16.6847 56.45 16.876C56.3427 17.0627 56.2447 17.2773 56.156 17.52V22H54.903V14.909H55.617C55.7523 14.909 55.8457 14.9347 55.897 14.986C55.9483 15.0373 55.9833 15.126 56.002 15.252L56.086 16.33ZM64.6505 16.169C64.6132 16.2203 64.5758 16.26 64.5385 16.288C64.5012 16.316 64.4498 16.33 64.3845 16.33C64.3145 16.33 64.2375 16.302 64.1535 16.246C64.0695 16.1853 63.9645 16.12 63.8385 16.05C63.7172 15.98 63.5655 15.917 63.3835 15.861C63.2062 15.8003 62.9868 15.77 62.7255 15.77C62.3755 15.77 62.0675 15.833 61.8015 15.959C61.5355 16.0803 61.3115 16.2577 61.1295 16.491C60.9522 16.7243 60.8168 17.0067 60.7235 17.338C60.6348 17.6693 60.5905 18.0403 60.5905 18.451C60.5905 18.8803 60.6395 19.263 60.7375 19.599C60.8355 19.9303 60.9732 20.2103 61.1505 20.439C61.3325 20.663 61.5495 20.8357 61.8015 20.957C62.0582 21.0737 62.3452 21.132 62.6625 21.132C62.9658 21.132 63.2155 21.097 63.4115 21.027C63.6075 20.9523 63.7685 20.8707 63.8945 20.782C64.0252 20.6933 64.1325 20.614 64.2165 20.544C64.3052 20.4693 64.3915 20.432 64.4755 20.432C64.5782 20.432 64.6575 20.4717 64.7135 20.551L65.0635 21.006C64.9095 21.1973 64.7345 21.3607 64.5385 21.496C64.3425 21.6313 64.1302 21.7457 63.9015 21.839C63.6775 21.9277 63.4418 21.993 63.1945 22.035C62.9472 22.077 62.6952 22.098 62.4385 22.098C61.9952 22.098 61.5822 22.0163 61.1995 21.853C60.8215 21.6897 60.4925 21.454 60.2125 21.146C59.9325 20.8333 59.7132 20.4507 59.5545 19.998C59.3958 19.5453 59.3165 19.0297 59.3165 18.451C59.3165 17.9237 59.3888 17.436 59.5335 16.988C59.6828 16.54 59.8975 16.155 60.1775 15.833C60.4622 15.5063 60.8098 15.252 61.2205 15.07C61.6358 14.888 62.1118 14.797 62.6485 14.797C63.1478 14.797 63.5865 14.8787 63.9645 15.042C64.3472 15.2007 64.6855 15.427 64.9795 15.721L64.6505 16.169ZM67.6541 15.854C67.9574 15.532 68.2934 15.2753 68.6621 15.084C69.0307 14.8927 69.4554 14.797 69.9361 14.797C70.3234 14.797 70.6641 14.8623 70.9581 14.993C71.2567 15.119 71.5041 15.301 71.7001 15.539C71.9007 15.7723 72.0524 16.0547 72.1551 16.386C72.2577 16.7173 72.3091 17.0837 72.3091 17.485V22H71.0561V17.485C71.0561 16.9483 70.9324 16.533 70.6851 16.239C70.4424 15.9403 70.0714 15.791 69.5721 15.791C69.2034 15.791 68.8581 15.8797 68.5361 16.057C68.2187 16.2343 67.9247 16.4747 67.6541 16.778V22H66.4011V11.689H67.6541V15.854Z" fill="#B6B6B6"/>
</svg>
